<?xml version="1.0" encoding="UTF-8" standalone="no"?>
<!DOCTYPE svg PUBLIC "-//W3C//DTD SVG 1.1//EN"
 "http://www.w3.org/Graphics/SVG/1.1/DTD/svg11.dtd">
<!-- Generated by graphviz version 2.40.1 (20161225.0304)
 -->
<!-- Title: dependencies Pages: 1 -->
<svg width="2081pt" height="284pt"
 viewBox="0.00 0.00 2081.00 284.00" xmlns="http://www.w3.org/2000/svg" xmlns:xlink="http://www.w3.org/1999/xlink">
<g id="graph0" class="graph" transform="scale(1 1) rotate(0) translate(4 280)">
<title>dependencies</title>
<polygon fill="#ffffff" stroke="transparent" points="-4,4 -4,-280 2077,-280 2077,4 -4,4"/>
<text text-anchor="start" x="1015.5091" y="-42.4" font-family="sans-serif" font-weight="bold" font-size="14.00" fill="#000000">Legend</text>
<polygon fill="#ffffb3" stroke="transparent" points="802.5,-10 802.5,-30 822.5,-30 822.5,-10 802.5,-10"/>
<text text-anchor="start" x="826.129" y="-15.4" font-family="sans-serif" font-size="14.00" fill="#000000"> &#160;Declarations</text>
<polygon fill="#8dd3c7" stroke="transparent" points="915.5,-10 915.5,-30 935.5,-30 935.5,-10 915.5,-10"/>
<text text-anchor="start" x="939.2251" y="-15.4" font-family="sans-serif" font-size="14.00" fill="#000000"> &#160;Module</text>
<polygon fill="#80b1d3" stroke="transparent" points="1001.5,-10 1001.5,-30 1021.5,-30 1021.5,-10 1001.5,-10"/>
<text text-anchor="start" x="1025.2812" y="-15.4" font-family="sans-serif" font-size="14.00" fill="#000000"> &#160;Bootstrap</text>
<polygon fill="#fdb462" stroke="transparent" points="1098.5,-10 1098.5,-30 1118.5,-30 1118.5,-10 1098.5,-10"/>
<text text-anchor="start" x="1122.1732" y="-15.4" font-family="sans-serif" font-size="14.00" fill="#000000"> &#160;Providers</text>
<polygon fill="#fb8072" stroke="transparent" points="1194.5,-10 1194.5,-30 1214.5,-30 1214.5,-10 1194.5,-10"/>
<text text-anchor="start" x="1218.2258" y="-15.4" font-family="sans-serif" font-size="14.00" fill="#000000"> &#160;Exports</text>
<g id="clust1" class="cluster">
<title>cluster_AboutModule</title>
<polygon fill="none" stroke="#000000" stroke-dasharray="1,5" points="8,-70 8,-195 300,-195 300,-70 8,-70"/>
</g>
<g id="clust3" class="cluster">
<title>cluster_AboutModule_imports</title>
<polygon fill="none" stroke="#000000" points="16,-78 16,-130 292,-130 292,-78 16,-78"/>
</g>
<g id="clust13" class="cluster">
<title>cluster_ComponentsModule</title>
<polygon fill="none" stroke="#000000" stroke-dasharray="1,5" points="308,-70 308,-268 1147,-268 1147,-70 308,-70"/>
</g>
<g id="clust14" class="cluster">
<title>cluster_ComponentsModule_declarations</title>
<polygon fill="none" stroke="#000000" points="316,-78 316,-130 1118,-130 1118,-78 316,-78"/>
</g>
<g id="clust22" class="cluster">
<title>cluster_ComponentsModule_exports</title>
<polygon fill="none" stroke="#000000" points="316,-208 316,-260 1139,-260 1139,-208 316,-208"/>
</g>
<g id="clust25" class="cluster">
<title>cluster_ContactModule</title>
<polygon fill="none" stroke="#000000" stroke-dasharray="1,5" points="1155,-70 1155,-195 1335,-195 1335,-70 1155,-70"/>
</g>
<g id="clust27" class="cluster">
<title>cluster_ContactModule_imports</title>
<polygon fill="none" stroke="#000000" points="1163,-78 1163,-130 1327,-130 1327,-78 1163,-78"/>
</g>
<g id="clust37" class="cluster">
<title>cluster_CoursesModule</title>
<polygon fill="none" stroke="#000000" stroke-dasharray="1,5" points="1521,-70 1521,-195 1703,-195 1703,-70 1521,-70"/>
</g>
<g id="clust39" class="cluster">
<title>cluster_CoursesModule_imports</title>
<polygon fill="none" stroke="#000000" points="1529,-78 1529,-130 1695,-130 1695,-78 1529,-78"/>
</g>
<g id="clust49" class="cluster">
<title>cluster_HomeModule</title>
<polygon fill="none" stroke="#000000" stroke-dasharray="1,5" points="1343,-70 1343,-195 1513,-195 1513,-70 1343,-70"/>
</g>
<g id="clust51" class="cluster">
<title>cluster_HomeModule_imports</title>
<polygon fill="none" stroke="#000000" points="1351,-78 1351,-130 1505,-130 1505,-78 1351,-78"/>
</g>
<g id="clust61" class="cluster">
<title>cluster_PortfolioModule</title>
<polygon fill="none" stroke="#000000" stroke-dasharray="1,5" points="1711,-70 1711,-195 1897,-195 1897,-70 1711,-70"/>
</g>
<g id="clust63" class="cluster">
<title>cluster_PortfolioModule_imports</title>
<polygon fill="none" stroke="#000000" points="1719,-78 1719,-130 1889,-130 1889,-78 1719,-78"/>
</g>
<g id="clust73" class="cluster">
<title>cluster_PostModule</title>
<polygon fill="none" stroke="#000000" stroke-dasharray="1,5" points="1905,-70 1905,-195 2065,-195 2065,-70 1905,-70"/>
</g>
<g id="clust75" class="cluster">
<title>cluster_PostModule_imports</title>
<polygon fill="none" stroke="#000000" points="1913,-78 1913,-130 2057,-130 2057,-78 1913,-78"/>
</g>
<!-- AboutRoutingModule -->
<g id="node1" class="node">
<title>AboutRoutingModule</title>
<polygon fill="#8dd3c7" stroke="#000000" points="163.6652,-122 160.6652,-126 139.6652,-126 136.6652,-122 24.3348,-122 24.3348,-86 163.6652,-86 163.6652,-122"/>
<text text-anchor="middle" x="94" y="-99.8" font-family="Times,serif" font-size="14.00" fill="#000000">AboutRoutingModule</text>
</g>
<!-- AboutModule -->
<g id="node3" class="node">
<title>AboutModule</title>
<polygon fill="#8dd3c7" stroke="#000000" points="210.0481,-187 207.0481,-191 186.0481,-191 183.0481,-187 115.9519,-187 115.9519,-151 210.0481,-151 210.0481,-187"/>
<text text-anchor="middle" x="163" y="-164.8" font-family="Times,serif" font-size="14.00" fill="#000000">AboutModule</text>
</g>
<!-- AboutRoutingModule&#45;&gt;AboutModule -->
<g id="edge1" class="edge">
<title>AboutRoutingModule&#45;&gt;AboutModule</title>
<path fill="none" stroke="#000000" d="M139.7795,-122.1061C139.7795,-122.1061 139.7795,-140.991 139.7795,-140.991"/>
<polygon fill="#000000" stroke="#000000" points="136.2795,-140.9909 139.7795,-150.991 143.2795,-140.991 136.2795,-140.9909"/>
</g>
<!-- SidebarModule -->
<g id="node2" class="node">
<title>SidebarModule</title>
<polygon fill="#8dd3c7" stroke="#000000" points="284.3133,-122 281.3133,-126 260.3133,-126 257.3133,-122 181.6867,-122 181.6867,-86 284.3133,-86 284.3133,-122"/>
<text text-anchor="middle" x="233" y="-99.8" font-family="Times,serif" font-size="14.00" fill="#000000">SidebarModule</text>
</g>
<!-- SidebarModule&#45;&gt;AboutModule -->
<g id="edge2" class="edge">
<title>SidebarModule&#45;&gt;AboutModule</title>
<path fill="none" stroke="#000000" d="M196.0586,-122.1061C196.0586,-122.1061 196.0586,-140.991 196.0586,-140.991"/>
<polygon fill="#000000" stroke="#000000" points="192.5586,-140.9909 196.0586,-150.991 199.5586,-140.991 192.5586,-140.9909"/>
</g>
<!-- ComponentsModule -->
<g id="node10" class="node">
<title>ComponentsModule</title>
<polygon fill="#8dd3c7" stroke="#000000" points="728.3272,-187 725.3272,-191 704.3272,-191 701.3272,-187 597.6728,-187 597.6728,-151 728.3272,-151 728.3272,-187"/>
<text text-anchor="middle" x="663" y="-164.8" font-family="Times,serif" font-size="14.00" fill="#000000">ComponentsModule</text>
</g>
<!-- SidebarModule&#45;&gt;ComponentsModule -->
<g id="edge9" class="edge">
<title>SidebarModule&#45;&gt;ComponentsModule</title>
<path fill="none" stroke="#000000" d="M265.6857,-122.1061C265.6857,-141.3391 265.6857,-169 265.6857,-169 265.6857,-169 587.8365,-169 587.8365,-169"/>
<polygon fill="#000000" stroke="#000000" points="587.8366,-172.5001 597.8365,-169 587.8365,-165.5001 587.8366,-172.5001"/>
</g>
<!-- ContactModule -->
<g id="node18" class="node">
<title>ContactModule</title>
<polygon fill="#8dd3c7" stroke="#000000" points="1281.5968,-187 1278.5968,-191 1257.5968,-191 1254.5968,-187 1178.4032,-187 1178.4032,-151 1281.5968,-151 1281.5968,-187"/>
<text text-anchor="middle" x="1230" y="-164.8" font-family="Times,serif" font-size="14.00" fill="#000000">ContactModule</text>
</g>
<!-- SidebarModule&#45;&gt;ContactModule -->
<g id="edge17" class="edge">
<title>SidebarModule&#45;&gt;ContactModule</title>
<path fill="none" stroke="#000000" d="M228.7442,-122.1097C228.7442,-131.897 228.7442,-142 228.7442,-142 228.7442,-142 1212.8172,-142 1212.8172,-142 1212.8172,-142 1212.8172,-142.8841 1212.8172,-142.8841"/>
<polygon fill="#000000" stroke="#000000" points="1209.3173,-140.8408 1212.8172,-150.8408 1216.3173,-140.8409 1209.3173,-140.8408"/>
</g>
<!-- HomeModule -->
<g id="node22" class="node">
<title>HomeModule</title>
<polygon fill="#8dd3c7" stroke="#000000" points="1459.7619,-187 1456.7619,-191 1435.7619,-191 1432.7619,-187 1366.2381,-187 1366.2381,-151 1459.7619,-151 1459.7619,-187"/>
<text text-anchor="middle" x="1413" y="-164.8" font-family="Times,serif" font-size="14.00" fill="#000000">HomeModule</text>
</g>
<!-- SidebarModule&#45;&gt;HomeModule -->
<g id="edge20" class="edge">
<title>SidebarModule&#45;&gt;HomeModule</title>
<path fill="none" stroke="#000000" d="M247.215,-122.207C247.215,-127.5549 247.215,-132 247.215,-132 247.215,-132 1397.3731,-132 1397.3731,-132 1397.3731,-132 1397.3731,-140.9336 1397.3731,-140.9336"/>
<polygon fill="#000000" stroke="#000000" points="1393.8732,-140.9335 1397.3731,-150.9336 1400.8732,-140.9336 1393.8732,-140.9335"/>
</g>
<!-- DomSecurePipe -->
<g id="node4" class="node">
<title>DomSecurePipe</title>
<polygon fill="#ffffb3" stroke="#000000" points="846.472,-122 739.528,-122 739.528,-86 846.472,-86 846.472,-122"/>
<text text-anchor="middle" x="793" y="-99.8" font-family="Times,serif" font-size="14.00" fill="#000000">DomSecurePipe</text>
</g>
<!-- DomSecurePipe&#45;&gt;ComponentsModule -->
<g id="edge3" class="edge">
<title>DomSecurePipe&#45;&gt;ComponentsModule</title>
<path fill="none" stroke="#000000" d="M793,-122.2396C793,-137.5706 793,-157 793,-157 793,-157 738.3809,-157 738.3809,-157"/>
<polygon fill="#000000" stroke="#000000" points="738.3809,-153.5001 728.3809,-157 738.3808,-160.5001 738.3809,-153.5001"/>
</g>
<!-- FooterComponent -->
<g id="node5" class="node">
<title>FooterComponent</title>
<polygon fill="#ffffb3" stroke="#000000" points="721.8809,-122 604.1191,-122 604.1191,-86 721.8809,-86 721.8809,-122"/>
<text text-anchor="middle" x="663" y="-99.8" font-family="Times,serif" font-size="14.00" fill="#000000">FooterComponent</text>
</g>
<!-- FooterComponent&#45;&gt;ComponentsModule -->
<g id="edge4" class="edge">
<title>FooterComponent&#45;&gt;ComponentsModule</title>
<path fill="none" stroke="#000000" d="M663,-122.1061C663,-122.1061 663,-140.991 663,-140.991"/>
<polygon fill="#000000" stroke="#000000" points="659.5001,-140.9909 663,-150.991 666.5001,-140.991 659.5001,-140.9909"/>
</g>
<!-- HeaderComponent -->
<g id="node6" class="node">
<title>HeaderComponent</title>
<polygon fill="#ffffb3" stroke="#000000" points="585.7437,-122 464.2563,-122 464.2563,-86 585.7437,-86 585.7437,-122"/>
<text text-anchor="middle" x="525" y="-99.8" font-family="Times,serif" font-size="14.00" fill="#000000">HeaderComponent</text>
</g>
<!-- HeaderComponent&#45;&gt;ComponentsModule -->
<g id="edge5" class="edge">
<title>HeaderComponent&#45;&gt;ComponentsModule</title>
<path fill="none" stroke="#000000" d="M580.8389,-122.2396C580.8389,-137.5706 580.8389,-157 580.8389,-157 580.8389,-157 587.4654,-157 587.4654,-157"/>
<polygon fill="#000000" stroke="#000000" points="587.4655,-160.5001 597.4654,-157 587.4654,-153.5001 587.4655,-160.5001"/>
</g>
<!-- NavbarComponent -->
<g id="node7" class="node">
<title>NavbarComponent</title>
<polygon fill="#ffffb3" stroke="#000000" points="446.0297,-122 323.9703,-122 323.9703,-86 446.0297,-86 446.0297,-122"/>
<text text-anchor="middle" x="385" y="-99.8" font-family="Times,serif" font-size="14.00" fill="#000000">NavbarComponent</text>
</g>
<!-- NavbarComponent&#45;&gt;ComponentsModule -->
<g id="edge6" class="edge">
<title>NavbarComponent&#45;&gt;ComponentsModule</title>
<path fill="none" stroke="#000000" d="M440.2292,-122.0225C440.2292,-139.3734 440.2292,-163 440.2292,-163 440.2292,-163 587.6666,-163 587.6666,-163"/>
<polygon fill="#000000" stroke="#000000" points="587.6667,-166.5001 597.6666,-163 587.6666,-159.5001 587.6667,-166.5001"/>
</g>
<!-- NotFoundComponent -->
<g id="node8" class="node">
<title>NotFoundComponent</title>
<polygon fill="#ffffb3" stroke="#000000" points="1110.1122,-122 971.8878,-122 971.8878,-86 1110.1122,-86 1110.1122,-122"/>
<text text-anchor="middle" x="1041" y="-99.8" font-family="Times,serif" font-size="14.00" fill="#000000">NotFoundComponent</text>
</g>
<!-- NotFoundComponent&#45;&gt;ComponentsModule -->
<g id="edge7" class="edge">
<title>NotFoundComponent&#45;&gt;ComponentsModule</title>
<path fill="none" stroke="#000000" d="M987.3172,-122.1061C987.3172,-141.3391 987.3172,-169 987.3172,-169 987.3172,-169 738.2403,-169 738.2403,-169"/>
<polygon fill="#000000" stroke="#000000" points="738.2403,-165.5001 728.2403,-169 738.2403,-172.5001 738.2403,-165.5001"/>
</g>
<!-- YoutubePipe -->
<g id="node9" class="node">
<title>YoutubePipe</title>
<polygon fill="#ffffb3" stroke="#000000" points="953.5997,-122 864.4003,-122 864.4003,-86 953.5997,-86 953.5997,-122"/>
<text text-anchor="middle" x="909" y="-99.8" font-family="Times,serif" font-size="14.00" fill="#000000">YoutubePipe</text>
</g>
<!-- YoutubePipe&#45;&gt;ComponentsModule -->
<g id="edge8" class="edge">
<title>YoutubePipe&#45;&gt;ComponentsModule</title>
<path fill="none" stroke="#000000" d="M872.8799,-122.0225C872.8799,-139.3734 872.8799,-163 872.8799,-163 872.8799,-163 738.2568,-163 738.2568,-163"/>
<polygon fill="#000000" stroke="#000000" points="738.2569,-159.5001 728.2568,-163 738.2568,-166.5001 738.2569,-159.5001"/>
</g>
<!-- DomSecurePipe  -->
<g id="node11" class="node">
<title>DomSecurePipe </title>
<polygon fill="#fb8072" stroke="#000000" points="1131.473,-252 1020.527,-252 1020.527,-216 1131.473,-216 1131.473,-252"/>
<text text-anchor="middle" x="1076" y="-229.8" font-family="Times,serif" font-size="14.00" fill="#000000">DomSecurePipe </text>
</g>
<!-- ComponentsModule&#45;&gt;DomSecurePipe  -->
<g id="edge10" class="edge">
<title>ComponentsModule&#45;&gt;DomSecurePipe </title>
<path fill="none" stroke="#000000" stroke-dasharray="5,2" d="M728.5497,-175C842.5774,-175 1065.4101,-175 1065.4101,-175 1065.4101,-175 1065.4101,-205.9775 1065.4101,-205.9775"/>
<polygon fill="#000000" stroke="#000000" points="1061.9101,-205.9774 1065.4101,-215.9775 1068.9101,-205.9775 1061.9101,-205.9774"/>
</g>
<!-- FooterComponent  -->
<g id="node12" class="node">
<title>FooterComponent </title>
<polygon fill="#fb8072" stroke="#000000" points="1002.8814,-252 881.1186,-252 881.1186,-216 1002.8814,-216 1002.8814,-252"/>
<text text-anchor="middle" x="942" y="-229.8" font-family="Times,serif" font-size="14.00" fill="#000000">FooterComponent </text>
</g>
<!-- ComponentsModule&#45;&gt;FooterComponent  -->
<g id="edge11" class="edge">
<title>ComponentsModule&#45;&gt;FooterComponent </title>
<path fill="none" stroke="#000000" stroke-dasharray="5,2" d="M728.1916,-181C803.5755,-181 917.4297,-181 917.4297,-181 917.4297,-181 917.4297,-205.7604 917.4297,-205.7604"/>
<polygon fill="#000000" stroke="#000000" points="913.9298,-205.7604 917.4297,-215.7604 920.9298,-205.7604 913.9298,-205.7604"/>
</g>
<!-- HeaderComponent  -->
<g id="node13" class="node">
<title>HeaderComponent </title>
<polygon fill="#fb8072" stroke="#000000" points="863.7436,-252 738.2564,-252 738.2564,-216 863.7436,-216 863.7436,-252"/>
<text text-anchor="middle" x="801" y="-229.8" font-family="Times,serif" font-size="14.00" fill="#000000">HeaderComponent </text>
</g>
<!-- ComponentsModule&#45;&gt;HeaderComponent  -->
<g id="edge12" class="edge">
<title>ComponentsModule&#45;&gt;HeaderComponent </title>
<path fill="none" stroke="#000000" stroke-dasharray="5,2" d="M724.0889,-187.1061C724.0889,-206.3391 724.0889,-234 724.0889,-234 724.0889,-234 728.1956,-234 728.1956,-234"/>
<polygon fill="#000000" stroke="#000000" points="728.1956,-237.5001 738.1956,-234 728.1955,-230.5001 728.1956,-237.5001"/>
</g>
<!-- NavbarComponent  -->
<g id="node14" class="node">
<title>NavbarComponent </title>
<polygon fill="#fb8072" stroke="#000000" points="720.0288,-252 593.9712,-252 593.9712,-216 720.0288,-216 720.0288,-252"/>
<text text-anchor="middle" x="657" y="-229.8" font-family="Times,serif" font-size="14.00" fill="#000000">NavbarComponent </text>
</g>
<!-- ComponentsModule&#45;&gt;NavbarComponent  -->
<g id="edge13" class="edge">
<title>ComponentsModule&#45;&gt;NavbarComponent </title>
<path fill="none" stroke="#000000" stroke-dasharray="5,2" d="M658.9255,-187.1061C658.9255,-187.1061 658.9255,-205.991 658.9255,-205.991"/>
<polygon fill="#000000" stroke="#000000" points="655.4256,-205.9909 658.9255,-215.991 662.4256,-205.991 655.4256,-205.9909"/>
</g>
<!-- NotFoundComponent  -->
<g id="node15" class="node">
<title>NotFoundComponent </title>
<polygon fill="#fb8072" stroke="#000000" points="575.6127,-252 434.3873,-252 434.3873,-216 575.6127,-216 575.6127,-252"/>
<text text-anchor="middle" x="505" y="-229.8" font-family="Times,serif" font-size="14.00" fill="#000000">NotFoundComponent </text>
</g>
<!-- ComponentsModule&#45;&gt;NotFoundComponent  -->
<g id="edge14" class="edge">
<title>ComponentsModule&#45;&gt;NotFoundComponent </title>
<path fill="none" stroke="#000000" stroke-dasharray="5,2" d="M597.762,-181C560.0386,-181 519.9672,-181 519.9672,-181 519.9672,-181 519.9672,-205.7604 519.9672,-205.7604"/>
<polygon fill="#000000" stroke="#000000" points="516.4673,-205.7604 519.9672,-215.7604 523.4673,-205.7604 516.4673,-205.7604"/>
</g>
<!-- YoutubePipe  -->
<g id="node16" class="node">
<title>YoutubePipe </title>
<polygon fill="#fb8072" stroke="#000000" points="416.1005,-252 323.8995,-252 323.8995,-216 416.1005,-216 416.1005,-252"/>
<text text-anchor="middle" x="370" y="-229.8" font-family="Times,serif" font-size="14.00" fill="#000000">YoutubePipe </text>
</g>
<!-- ComponentsModule&#45;&gt;YoutubePipe  -->
<g id="edge15" class="edge">
<title>ComponentsModule&#45;&gt;YoutubePipe </title>
<path fill="none" stroke="#000000" stroke-dasharray="5,2" d="M597.6137,-175C511.2652,-175 370.0177,-175 370.0177,-175 370.0177,-175 370.0177,-205.9775 370.0177,-205.9775"/>
<polygon fill="#000000" stroke="#000000" points="366.5178,-205.9774 370.0177,-215.9775 373.5178,-205.9775 366.5178,-205.9774"/>
</g>
<!-- ContactRoutingModule -->
<g id="node17" class="node">
<title>ContactRoutingModule</title>
<polygon fill="#8dd3c7" stroke="#000000" points="1319.2148,-122 1316.2148,-126 1295.2148,-126 1292.2148,-122 1170.7852,-122 1170.7852,-86 1319.2148,-86 1319.2148,-122"/>
<text text-anchor="middle" x="1245" y="-99.8" font-family="Times,serif" font-size="14.00" fill="#000000">ContactRoutingModule</text>
</g>
<!-- ContactRoutingModule&#45;&gt;ContactModule -->
<g id="edge16" class="edge">
<title>ContactRoutingModule&#45;&gt;ContactModule</title>
<path fill="none" stroke="#000000" d="M1247.1828,-122.1061C1247.1828,-122.1061 1247.1828,-140.991 1247.1828,-140.991"/>
<polygon fill="#000000" stroke="#000000" points="1243.6829,-140.9909 1247.1828,-150.991 1250.6829,-140.991 1243.6829,-140.9909"/>
</g>
<!-- CoursesRoutingModule -->
<g id="node19" class="node">
<title>CoursesRoutingModule</title>
<polygon fill="#8dd3c7" stroke="#000000" points="1686.7688,-122 1683.7688,-126 1662.7688,-126 1659.7688,-122 1537.2312,-122 1537.2312,-86 1686.7688,-86 1686.7688,-122"/>
<text text-anchor="middle" x="1612" y="-99.8" font-family="Times,serif" font-size="14.00" fill="#000000">CoursesRoutingModule</text>
</g>
<!-- CoursesModule -->
<g id="node20" class="node">
<title>CoursesModule</title>
<polygon fill="#8dd3c7" stroke="#000000" points="1664.1514,-187 1661.1514,-191 1640.1514,-191 1637.1514,-187 1559.8486,-187 1559.8486,-151 1664.1514,-151 1664.1514,-187"/>
<text text-anchor="middle" x="1612" y="-164.8" font-family="Times,serif" font-size="14.00" fill="#000000">CoursesModule</text>
</g>
<!-- CoursesRoutingModule&#45;&gt;CoursesModule -->
<g id="edge18" class="edge">
<title>CoursesRoutingModule&#45;&gt;CoursesModule</title>
<path fill="none" stroke="#000000" d="M1612,-122.1061C1612,-122.1061 1612,-140.991 1612,-140.991"/>
<polygon fill="#000000" stroke="#000000" points="1608.5001,-140.9909 1612,-150.991 1615.5001,-140.991 1608.5001,-140.9909"/>
</g>
<!-- HomeRoutingModule -->
<g id="node21" class="node">
<title>HomeRoutingModule</title>
<polygon fill="#8dd3c7" stroke="#000000" points="1497.3795,-122 1494.3795,-126 1473.3795,-126 1470.3795,-122 1358.6205,-122 1358.6205,-86 1497.3795,-86 1497.3795,-122"/>
<text text-anchor="middle" x="1428" y="-99.8" font-family="Times,serif" font-size="14.00" fill="#000000">HomeRoutingModule</text>
</g>
<!-- HomeRoutingModule&#45;&gt;HomeModule -->
<g id="edge19" class="edge">
<title>HomeRoutingModule&#45;&gt;HomeModule</title>
<path fill="none" stroke="#000000" d="M1428.6269,-122.1061C1428.6269,-122.1061 1428.6269,-140.991 1428.6269,-140.991"/>
<polygon fill="#000000" stroke="#000000" points="1425.127,-140.9909 1428.6269,-150.991 1432.127,-140.991 1425.127,-140.9909"/>
</g>
<!-- PortfolioRoutingModule -->
<g id="node23" class="node">
<title>PortfolioRoutingModule</title>
<polygon fill="#8dd3c7" stroke="#000000" points="1881.4438,-122 1878.4438,-126 1857.4438,-126 1854.4438,-122 1726.5562,-122 1726.5562,-86 1881.4438,-86 1881.4438,-122"/>
<text text-anchor="middle" x="1804" y="-99.8" font-family="Times,serif" font-size="14.00" fill="#000000">PortfolioRoutingModule</text>
</g>
<!-- PortfolioModule -->
<g id="node24" class="node">
<title>PortfolioModule</title>
<polygon fill="#8dd3c7" stroke="#000000" points="1858.8259,-187 1855.8259,-191 1834.8259,-191 1831.8259,-187 1749.1741,-187 1749.1741,-151 1858.8259,-151 1858.8259,-187"/>
<text text-anchor="middle" x="1804" y="-164.8" font-family="Times,serif" font-size="14.00" fill="#000000">PortfolioModule</text>
</g>
<!-- PortfolioRoutingModule&#45;&gt;PortfolioModule -->
<g id="edge21" class="edge">
<title>PortfolioRoutingModule&#45;&gt;PortfolioModule</title>
<path fill="none" stroke="#000000" d="M1804,-122.1061C1804,-122.1061 1804,-140.991 1804,-140.991"/>
<polygon fill="#000000" stroke="#000000" points="1800.5001,-140.9909 1804,-150.991 1807.5001,-140.991 1800.5001,-140.9909"/>
</g>
<!-- PostRoutingModule -->
<g id="node25" class="node">
<title>PostRoutingModule</title>
<polygon fill="#8dd3c7" stroke="#000000" points="2049.2856,-122 2046.2856,-126 2025.2856,-126 2022.2856,-122 1920.7144,-122 1920.7144,-86 2049.2856,-86 2049.2856,-122"/>
<text text-anchor="middle" x="1985" y="-99.8" font-family="Times,serif" font-size="14.00" fill="#000000">PostRoutingModule</text>
</g>
<!-- PostModule -->
<g id="node26" class="node">
<title>PostModule</title>
<polygon fill="#8dd3c7" stroke="#000000" points="2026.6683,-187 2023.6683,-191 2002.6683,-191 1999.6683,-187 1943.3317,-187 1943.3317,-151 2026.6683,-151 2026.6683,-187"/>
<text text-anchor="middle" x="1985" y="-164.8" font-family="Times,serif" font-size="14.00" fill="#000000">PostModule</text>
</g>
<!-- PostRoutingModule&#45;&gt;PostModule -->
<g id="edge22" class="edge">
<title>PostRoutingModule&#45;&gt;PostModule</title>
<path fill="none" stroke="#000000" d="M1985,-122.1061C1985,-122.1061 1985,-140.991 1985,-140.991"/>
<polygon fill="#000000" stroke="#000000" points="1981.5001,-140.9909 1985,-150.991 1988.5001,-140.991 1981.5001,-140.9909"/>
</g>
</g>
</svg>
